<svg id="Ebene_1" data-name="Ebene 1" xmlns="http://www.w3.org/2000/svg" viewBox="0 0 723.06 758.62">
  <defs>
    <style>
      .cls-1 {
        fill: #fff;
      }
    </style>
  </defs>
  <g>
    <path class="cls-1" d="M306,375.73a83.52,83.52,0,0,1-26.52-45.9H136.87L234.7,499.29Z"/>
    <path class="cls-1" d="M136.87,296.36H279.52A83.52,83.52,0,0,1,306,250.46L234.7,126.9Z"/>
    <path class="cls-1" d="M263.69,110.16,335,233.7a84.05,84.05,0,0,1,53,0l71.33-123.54Z"/>
    <path class="cls-1" d="M459.36,516,388,392.49a84.05,84.05,0,0,1-53,0L263.69,516Z"/>
    <path class="cls-1" d="M443.54,296.36H586.19L488.36,126.9,417,250.46A83.58,83.58,0,0,1,443.54,296.36Z"/>
    <path class="cls-1" d="M586.19,329.83H443.54A83.58,83.58,0,0,1,417,375.73l71.34,123.56Z"/>
    <polygon class="cls-1" points="595.85 718.96 495.43 545.01 495.43 545.01 227.63 545.01 93.73 313.09 227.63 81.17 495.43 81.17 629.33 313.09 723.06 313.09 542.29 0 180.76 0 0 313.09 180.76 626.19 450.69 626.19 527.15 758.62 595.85 718.96"/>
  </g>
</svg>
